<?xml version="1.0" encoding="UTF-8"?>
<svg version="1.1" xmlns="http://www.w3.org/2000/svg" width="3000" height="3000">
<path d="M0 0 C6.65862728 0.01039044 13.31725799 0.01483065 19.97589111 0.01983643 C31.36193789 0.02913735 42.74797102 0.0428484 54.13400692 0.06106049 C55.47109835 0.06319819 55.47109835 0.06319819 56.83520174 0.06537909 C57.51262532 0.06646329 58.19004891 0.06754749 58.88800049 0.06866455 C58.99639936 22.23786252 58.77313512 44.36968998 58.12900963 66.52931799 C58.01331207 70.54904812 57.9034871 74.56894026 57.79281798 78.5888114 C57.59842905 85.62170698 57.40048468 92.65449509 57.20007355 99.68722154 C56.90008064 110.21508709 56.60585703 120.74310882 56.31266661 131.27116574 C55.81256332 149.22326661 55.30785159 167.1752352 54.8005619 185.12713432 C54.28707934 203.29879771 53.7757539 221.47051992 53.26701736 239.64231682 C53.23479098 240.79337509 53.2025646 241.94443335 53.16936166 243.13037217 C53.03810066 247.81899595 52.90685512 252.50762017 52.77562912 257.19624493 C51.55568936 300.7838938 50.33096562 344.37140702 49.10318184 387.9588356 C47.92061172 429.94129214 46.73975412 471.92379618 45.56129265 513.90636826 C45.48722089 516.54507974 45.41314891 519.18379122 45.33907673 521.82250269 C45.04140757 532.42661468 44.74374945 543.03072698 44.44610582 553.63483969 C43.61418076 583.27353556 42.78192319 612.91222209 41.94940853 642.55090141 C41.93045978 643.22550753 41.91151103 643.90011366 41.89198808 644.59516239 C40.66559056 688.25671206 39.43773405 731.91822058 38.20878696 775.57969856 C38.17937572 776.62461373 38.17937572 776.62461373 38.1493703 777.69063829 C37.49266297 801.02193719 36.83586685 824.3532336 36.1790641 847.68452982 C34.19194156 918.27223985 32.20625483 988.85998974 28.66727629 1114.96783427 C28.56764686 1118.51874009 28.46801655 1122.06964589 28.36838624 1125.62055168 C28.33881103 1126.67463661 28.33881103 1126.67463661 28.30863833 1127.75001617 C28.24891447 1129.87862315 28.18919057 1132.00723012 28.12946666 1134.13583709 C28.09991625 1135.18903758 28.09991625 1135.18903758 28.06976887 1136.26351485 C27.63335003 1151.81782912 27.19691963 1167.37214307 26.76046782 1182.92645643 C26.72093314 1184.33539862 26.68139859 1185.74434082 26.64186418 1187.15328303 C25.41668802 1230.81656608 24.19059446 1274.47982327 22.96338558 1318.14304924 C22.94443634 1318.81725257 22.92548709 1319.49145589 22.90596362 1320.18608962 C22.05516785 1350.45680643 21.204111 1380.72751589 20.35281791 1410.99821872 C20.055102 1421.58455522 19.75739518 1432.17089197 19.4596888 1442.75722873 C19.34865678 1446.70545253 19.23762147 1450.65367624 19.12658606 1454.60189995 C18.31416227 1483.49075378 17.50224095 1512.37962162 16.69163632 1541.26852655 C16.6368184 1543.22216294 16.6368184 1543.22216294 16.58089304 1545.21526673 C16.39689201 1551.77292635 16.21289998 1558.33058622 16.02891167 1564.88824619 C14.70046159 1612.23641941 13.36963179 1659.58452469 12.03450293 1706.93251009 C11.90311965 1711.59215306 11.77174774 1716.25179635 11.64038467 1720.9114399 C11.6081443 1722.05501264 11.57590392 1723.19858539 11.54268656 1724.37681186 C11.03142723 1742.51363279 10.52266904 1760.65052298 10.01493787 1778.78744298 C9.51614823 1796.60304445 9.01470348 1814.41856953 8.51039613 1832.23401568 C8.21451475 1842.68928406 7.92068583 1853.14460532 7.62984445 1863.60001514 C7.43673488 1870.5347752 7.24094071 1877.46945604 7.04292037 1884.4040776 C6.93058606 1888.34066094 6.81942769 1892.27726772 6.71156335 1896.21397629 C6.59574632 1900.43998931 6.47418194 1904.66581739 6.35203654 1908.89165223 C6.31960499 1910.10894854 6.28717344 1911.32624486 6.25375912 1912.58042894 C6.06883633 1918.79896659 5.67867586 1924.89694081 4.88800049 1931.06866455 C-27.44822232 1931.3570483 -59.75155077 1930.58813454 -92.07394815 1929.74562282 C-99.62277989 1929.54904335 -107.17175574 1929.35827176 -114.72073995 1929.16765284 C-128.21430159 1928.82676328 -141.70774114 1928.48127147 -155.20111084 1928.13287354 C-168.19940975 1927.79726577 -181.19777449 1927.46439287 -194.19622803 1927.13482666 C-195.39975053 1927.10431131 -195.39975053 1927.10431131 -196.62758661 1927.07317949 C-199.85595815 1926.99133053 -203.08432985 1926.90948827 -206.31270185 1926.82765785 C-219.59868432 1926.49082429 -232.88461443 1926.15193367 -246.17053485 1925.81266284 C-249.16360906 1925.73623174 -252.15668498 1925.65986776 -255.14976239 1925.58356214 C-263.00959911 1925.38313849 -270.86941622 1925.18198526 -278.72918666 1924.97897739 C-281.96764413 1924.89533427 -285.20611028 1924.81206681 -288.44459534 1924.72949791 C-290.23276924 1924.6838668 -290.23276924 1924.6838668 -292.05706787 1924.63731384 C-293.08160348 1924.61127201 -294.10613909 1924.58523018 -295.16172123 1924.5583992 C-306.60509008 1924.25693226 -318.04660273 1923.9183225 -329.48779202 1923.54453945 C-330.91742071 1923.49809004 -332.34705042 1923.45167194 -333.77668115 1923.40528557 C-337.22179902 1923.29343752 -340.66690313 1923.18117257 -344.11199951 1923.06866455 C-347.46475677 1868.42919021 -350.49142092 1813.77218039 -353.50606816 1759.11318508 C-354.01559957 1749.87565372 -354.52586865 1740.63816331 -355.03662491 1731.40069962 C-355.07384559 1730.72752676 -355.11106627 1730.0543539 -355.14941485 1729.36078186 C-355.33933205 1725.92600491 -355.52926085 1722.49122859 -355.71919459 1719.05645255 C-357.03952178 1695.17926867 -358.35864134 1671.30201824 -359.67702761 1647.42472712 C-361.06232397 1622.33568874 -362.44843437 1597.24669553 -363.83567238 1572.15776443 C-363.87772321 1571.39725153 -363.91977404 1570.63673862 -363.96309913 1569.85317987 C-364.47607015 1560.57586703 -364.98907752 1551.2985562 -365.50209463 1542.02124591 C-366.32773145 1527.0905206 -367.1532736 1512.15979006 -367.97881031 1497.22905922 C-368.02223383 1496.44370087 -368.06565734 1495.65834251 -368.11039672 1494.84918542 C-370.1690969 1457.6154556 -372.22700765 1420.38168216 -374.28464358 1383.14789352 C-374.42087244 1380.68277654 -374.55710199 1378.2176596 -374.69333164 1375.75254266 C-376.74980718 1338.53993144 -378.80600512 1301.32730488 -380.86176047 1264.11465386 C-381.0449675 1260.79829733 -381.22817537 1257.48194084 -381.41138319 1254.16558436 C-381.54869813 1251.67996259 -381.68601296 1249.19434082 -381.82332775 1246.70871905 C-382.23466975 1239.26275904 -382.64601245 1231.81679906 -383.05735619 1224.37083914 C-383.19423677 1221.89308527 -383.33111683 1219.41533137 -383.46799685 1216.93757747 C-385.5297554 1179.61643199 -387.59190352 1142.2953081 -389.65556812 1104.97426796 C-389.72059303 1103.79829785 -389.72059303 1103.79829785 -389.78693158 1102.59857078 C-390.69563004 1086.16489188 -391.60442587 1069.73121838 -392.51335468 1053.29755222 C-392.93885108 1045.60445286 -393.36432091 1037.91135203 -393.78977394 1030.21825027 C-393.83165498 1029.46095786 -393.87353602 1028.70366544 -393.91668618 1027.92342477 C-395.26479504 1003.54667796 -396.61117974 979.16983629 -397.95660902 954.79294145 C-399.30932356 930.28409915 -400.66352206 905.77533937 -402.01984689 881.26669659 C-402.20710653 877.88292125 -402.39434763 874.49914489 -402.5815773 871.11536789 C-402.61827834 870.45208559 -402.65497937 869.78880328 -402.69279256 869.10542152 C-403.30954423 857.95822085 -403.9243027 846.81091097 -404.53853195 835.66357108 C-405.07247808 825.97571566 -405.60822549 816.28796095 -406.14545694 806.60028716 C-406.45176997 801.07571115 -406.75727754 795.55109376 -407.06058713 790.02635197 C-407.3363536 785.00357204 -407.61441326 779.98092457 -407.89432147 774.95837379 C-407.99466886 773.15048329 -408.09417229 771.34254571 -408.19273857 769.53455723 C-408.32660113 767.08137413 -408.46355666 764.62838206 -408.6012699 762.17541254 C-408.63850293 761.47941037 -408.67573597 760.7834082 -408.71409727 760.06631506 C-409.00089974 755.04254469 -409.5163887 750.06311011 -410.11199951 745.06866455 C-410.4878418 745.74518066 -410.86368408 746.42169678 -411.25091553 747.11871338 C-411.7838623 748.07801758 -412.31680908 749.03732178 -412.86590576 750.0256958 C-413.46540039 751.10480225 -414.06489502 752.18390869 -414.68255615 753.29571533 C-416.02932595 755.71990935 -417.37617819 758.14405754 -418.7230835 760.56817627 C-422.13529607 766.70953224 -425.54672473 772.85131963 -428.95574951 778.9944458 C-435.56169842 790.89622285 -442.18796667 802.78615458 -448.84490967 814.65948486 C-455.00028624 825.64345462 -461.11132338 836.65193957 -467.22088623 847.66143799 C-470.97232171 854.4204147 -474.72742051 861.17735714 -478.48236084 867.93438721 C-481.63492248 873.60792907 -484.78552454 879.28254278 -487.93231201 884.95928955 C-493.76493235 895.47698253 -499.61461062 905.98328524 -505.54949951 916.44366455 C-511.46544214 926.87411738 -517.26166871 937.36869843 -523.04530334 947.87277222 C-523.38184433 948.48397919 -523.71838531 949.09518616 -524.06512451 949.72491455 C-524.40186691 950.33652435 -524.73860931 950.94813416 -525.08555603 951.57827759 C-533.9347993 967.64474953 -542.87510362 983.66070909 -551.84515381 999.65997314 C-558.63553842 1011.77687839 -565.37268069 1023.9233079 -572.11199951 1036.06866455 C-585.47628692 1060.15329997 -585.47628692 1060.15329997 -590.63934326 1069.37335205 C-591.21370117 1070.39928467 -591.78805908 1071.42521729 -592.37982178 1072.48223877 C-593.52913929 1074.53011361 -594.68194118 1076.57603705 -595.83831787 1078.61993408 C-598.61206841 1083.53499661 -601.33926029 1088.46452562 -603.94042969 1093.47283936 C-605.21449148 1095.92090955 -606.50913539 1098.35784188 -607.80487061 1100.79449463 C-608.70217542 1102.50238202 -609.56984486 1104.2257396 -610.43621826 1105.94952393 C-614.90035082 1114.31341693 -620.26348099 1118.89119207 -628.11199951 1124.06866455 C-629.94755464 1125.36108773 -631.78096258 1126.65656689 -633.61199951 1127.9553833 C-635.44384038 1129.22446737 -637.27720995 1130.49134733 -639.11199951 1131.75616455 C-641.12519379 1133.15044539 -643.13821135 1134.54498144 -645.15106201 1135.9397583 C-646.64814697 1136.97592285 -646.64814697 1136.97592285 -648.17547607 1138.03302002 C-652.62175259 1141.11524928 -657.05562888 1144.21505679 -661.48699951 1147.31866455 C-662.30748779 1147.89318359 -663.12797607 1148.46770264 -663.97332764 1149.05963135 C-669.88765836 1153.20403596 -675.78908997 1157.36648794 -681.6864624 1161.53497314 C-689.62723819 1167.14491131 -697.59589338 1172.71493519 -705.56365967 1178.28643799 C-709.74743011 1181.21243188 -713.92964475 1184.14064765 -718.11199951 1187.06866455 C-719.77865853 1188.23534214 -721.4453252 1189.4020088 -723.11199951 1190.56866455 C-723.93699951 1191.14616455 -724.76199951 1191.72366455 -725.61199951 1192.31866455 C-813.11199951 1253.56866455 -813.11199951 1253.56866455 -815.61273193 1255.31915283 C-817.27698779 1256.48414819 -818.94121312 1257.64918715 -820.60540771 1258.81427002 C-824.80870874 1261.75686866 -829.01256132 1264.69867359 -833.21746826 1267.63897705 C-841.02638619 1273.10042886 -848.83045331 1278.56826387 -856.61199951 1284.06866455 C-865.24288022 1290.16941894 -873.90189005 1296.22964969 -882.56365967 1302.28643799 C-886.74743011 1305.21243188 -890.92964475 1308.14064765 -895.11199951 1311.06866455 C-896.77865853 1312.23534214 -898.4453252 1313.4020088 -900.11199951 1314.56866455 C-900.93699951 1315.14616455 -901.76199951 1315.72366455 -902.61199951 1316.31866455 C-905.11199951 1318.06866455 -907.61199951 1319.81866455 -910.11199951 1321.56866455 C-910.93772461 1322.14672852 -911.76344971 1322.72479248 -912.61419678 1323.32037354 C-914.27332497 1324.48164975 -915.9326659 1325.6426221 -917.59222412 1326.80328369 C-921.87606493 1329.79990968 -926.15557231 1332.80245367 -930.42840576 1335.8147583 C-938.87310415 1341.76096066 -947.29121058 1347.68717406 -956.11199951 1353.06866455 C-955.53553422 1349.4956007 -954.60808141 1346.76648487 -952.84637451 1343.6116333 C-952.37530273 1342.75907959 -951.90423096 1341.90652588 -951.41888428 1341.02813721 C-950.9051123 1340.11338623 -950.39134033 1339.19863525 -949.86199951 1338.25616455 C-948.76125075 1336.26815361 -947.66100758 1334.27986267 -946.56121826 1332.2913208 C-945.99064697 1331.26409912 -945.42007568 1330.23687744 -944.83221436 1329.17852783 C-942.07932641 1324.20176276 -939.37758602 1319.19759989 -936.67449951 1314.19366455 C-935.58347618 1312.17797324 -934.49232961 1310.16234863 -933.40106201 1308.14678955 C-932.30466639 1306.12077032 -931.20831228 1304.09472862 -930.11199951 1302.06866455 C-923.30433679 1289.48761902 -916.48742578 1276.91194305 -909.63128662 1264.35723877 C-905.94394876 1257.60206001 -902.27468496 1250.83723766 -898.61199951 1244.06866455 C-893.96917897 1235.48882041 -889.3072846 1226.91966151 -884.63153076 1218.35772705 C-880.94414852 1211.60236536 -877.27477153 1204.83739763 -873.61199951 1198.06866455 C-868.96917897 1189.48882041 -864.3072846 1180.91966151 -859.63153076 1172.35772705 C-855.94414852 1165.60236536 -852.27477153 1158.83739763 -848.61199951 1152.06866455 C-843.96917897 1143.48882041 -839.3072846 1134.91966151 -834.63153076 1126.35772705 C-830.94414852 1119.60236536 -827.27477153 1112.83739763 -823.61199951 1106.06866455 C-819.45920239 1098.39437439 -815.29420761 1090.7269668 -811.11199951 1083.06866455 C-804.75004376 1071.41747537 -798.42956151 1059.74396904 -792.11199951 1048.06866455 C-785.30433679 1035.48761902 -778.48742578 1022.91194305 -771.63128662 1010.35723877 C-767.94394876 1003.60206001 -764.27468496 996.83723766 -760.61199951 990.06866455 C-755.96917897 981.48882041 -751.3072846 972.91966151 -746.63153076 964.35772705 C-742.94414852 957.60236536 -739.27477153 950.83739763 -735.61199951 944.06866455 C-730.96917897 935.48882041 -726.3072846 926.91966151 -721.63153076 918.35772705 C-717.94414852 911.60236536 -714.27477153 904.83739763 -710.61199951 898.06866455 C-705.96917897 889.48882041 -701.3072846 880.91966151 -696.63153076 872.35772705 C-692.94414852 865.60236536 -689.27477153 858.83739763 -685.61199951 852.06866455 C-681.45920239 844.39437439 -677.29420761 836.7269668 -673.11199951 829.06866455 C-666.75004376 817.41747537 -660.42956151 805.74396904 -654.11199951 794.06866455 C-647.30433679 781.48761902 -640.48742578 768.91194305 -633.63128662 756.35723877 C-629.94394876 749.60206001 -626.27468496 742.83723766 -622.61199951 736.06866455 C-617.96917897 727.48882041 -613.3072846 718.91966151 -608.63153076 710.35772705 C-604.94414852 703.60236536 -601.27477153 696.83739763 -597.61199951 690.06866455 C-592.96917897 681.48882041 -588.3072846 672.91966151 -583.63153076 664.35772705 C-579.94414852 657.60236536 -576.27477153 650.83739763 -572.61199951 644.06866455 C-567.96917897 635.48882041 -563.3072846 626.91966151 -558.63153076 618.35772705 C-554.94414852 611.60236536 -551.27477153 604.83739763 -547.61199951 598.06866455 C-543.45920239 590.39437439 -539.29420761 582.7269668 -535.11199951 575.06866455 C-528.75004376 563.41747537 -522.42956151 551.74396904 -516.11199951 540.06866455 C-509.30433679 527.48761902 -502.48742578 514.91194305 -495.63128662 502.35723877 C-491.94394876 495.60206001 -488.27468496 488.83723766 -484.61199951 482.06866455 C-479.96917897 473.48882041 -475.3072846 464.91966151 -470.63153076 456.35772705 C-466.94414841 449.60236516 -463.27482085 442.8373711 -459.61199951 436.06866455 C-455.29014425 428.0832198 -450.95882063 420.10304998 -446.61199951 412.13116455 C-446.13182373 411.25009033 -445.65164795 410.36901611 -445.15692139 409.46124268 C-444.69865967 408.62141846 -444.24039795 407.78159424 -443.76824951 406.9163208 C-443.17753662 405.83362915 -443.17753662 405.83362915 -442.57489014 404.72906494 C-441.22994311 402.28315578 -439.87654785 399.84219475 -438.52056885 397.40238953 C-438.06970665 396.59108298 -437.61884445 395.77977644 -437.15431976 394.94388485 C-436.81035408 394.32506215 -436.4663884 393.70623945 -436.11199951 393.06866455 C-417.87653628 393.7506208 -399.70108092 395.15890425 -381.51038027 396.56027603 C-377.1883915 396.89270179 -372.86616575 397.22202083 -368.54397583 397.55181885 C-361.30737303 398.1044785 -354.07095833 398.65954934 -346.83465576 399.21612549 C-338.48388589 399.85839143 -330.13282977 400.49682748 -321.78161299 401.13325405 C-313.70457909 401.74886868 -305.62774741 402.36709822 -297.55100632 402.98654175 C-294.12940107 403.24891931 -290.70772907 403.51040017 -287.2859993 403.77114868 C-283.26537443 404.07765855 -279.24493248 404.38646746 -275.22461891 404.69703293 C-273.75372549 404.81029395 -272.28277199 404.92277794 -270.81175423 405.03441238 C-268.79860436 405.18732179 -266.78569423 405.34337756 -264.77279663 405.49957275 C-263.08673026 405.62898003 -263.08673026 405.62898003 -261.36660194 405.76100159 C-257.91350423 406.08742864 -254.52270298 406.42967884 -251.11199951 407.06866455 C-249.57665081 410.13936196 -249.57815958 413.45102406 -249.25963116 416.82876778 C-249.17950341 417.64472446 -249.09937566 418.46068113 -249.0168198 419.30136377 C-248.74596595 422.06972349 -248.48086861 424.83860539 -248.21568298 427.60751343 C-248.02129663 429.60661511 -247.82655957 431.60568271 -247.63150108 433.60471892 C-247.09209245 439.14344041 -246.55770996 444.68263744 -246.02408202 450.22191843 C-245.44476343 456.22635148 -244.86083377 462.23033627 -244.27746487 468.23437691 C-243.25518864 478.76231452 -242.23585918 489.29053378 -241.21849442 499.81894684 C-240.12835101 511.10035305 -239.03647824 522.38158987 -237.94245529 533.66262054 C-237.83907583 534.72863329 -237.83907583 534.72863329 -237.7336079 535.81618166 C-237.38231322 539.43851869 -237.03098878 543.06085285 -236.67965275 546.68318588 C-234.13875038 572.88085303 -231.60161531 599.0788839 -229.06637573 625.27709961 C-226.56043375 651.17236697 -224.05254621 677.06744484 -221.54214478 702.96228027 C-221.46432228 703.76502606 -221.38649978 704.56777185 -221.30631903 705.39484327 C-220.51688308 713.53790469 -219.72740337 721.68096186 -218.93789467 729.82401623 C-217.25675638 747.16340814 -215.57588483 764.50282591 -213.89512634 781.84225464 C-213.81517454 782.66706895 -213.73522273 783.49188325 -213.65284814 784.34169193 C-209.78343534 824.26025902 -205.91664605 864.17908015 -202.05047607 904.09796143 C-201.96824175 904.94704241 -201.88600742 905.7961234 -201.80128114 906.67093411 C-198.42455112 941.53615787 -195.04816903 976.40141531 -191.67182093 1011.26667605 C-190.14564322 1027.02647708 -188.61944986 1042.78627661 -187.09323553 1058.5460741 C-186.69536778 1062.65448493 -186.29750129 1066.7628959 -185.89963798 1070.87130716 C-182.33570384 1107.6731392 -178.77126165 1144.4749219 -175.20491028 1181.27651978 C-175.13042201 1182.04517723 -175.05593374 1182.81383469 -174.97918826 1183.60578479 C-173.49475647 1198.92388336 -172.01024891 1214.24197458 -170.52555815 1229.56004805 C-169.72543893 1237.81517415 -168.92536368 1246.07030451 -168.12533569 1254.32543945 C-168.05382977 1255.06327423 -167.98232385 1255.80110901 -167.90865108 1256.56130242 C-165.53398046 1281.06466726 -163.16217424 1305.5683085 -160.79174161 1330.07208365 C-158.48971384 1353.86862346 -156.18531875 1377.66493298 -153.878438 1401.46100283 C-152.51076469 1415.56981254 -151.14510264 1429.6788137 -149.78225198 1443.78809009 C-148.87534048 1453.17518678 -147.96592673 1462.56203879 -147.05442176 1471.94869056 C-146.53470618 1477.30149561 -146.01614038 1482.65440556 -145.50063837 1488.00761819 C-145.03283222 1492.86533647 -144.56185385 1497.72273585 -144.08823873 1502.57989112 C-143.91777757 1504.33401201 -143.74851815 1506.08825017 -143.58054851 1507.8426114 C-143.35382674 1510.20885112 -143.12284407 1512.57463606 -142.89072514 1514.94035149 C-142.82593316 1515.62747062 -142.76114118 1516.31458976 -142.69438581 1517.02253068 C-142.40997264 1519.87963422 -142.02462632 1522.33078413 -141.11199951 1525.06866455 C-141.09739737 1523.80134443 -141.08279523 1522.53402431 -141.06775061 1521.22830055 C-140.56769035 1477.82832653 -140.0675385 1434.42835357 -139.56732178 1391.02838135 C-139.55724313 1390.15393376 -139.54716449 1389.27948618 -139.53678043 1388.37854018 C-138.456048 1294.61181226 -137.37471158 1200.84509133 -136.29216003 1107.0783844 C-136.26809187 1104.99367375 -136.24402371 1102.90896311 -136.21995555 1100.82425246 C-135.7146674 1057.05789675 -135.20929463 1013.29154201 -134.7038242 969.52518839 C-134.44987943 947.53727347 -134.1959509 925.54935836 -133.94203775 903.56144308 C-133.90373773 900.24481532 -133.86543725 896.92818757 -133.82713675 893.61155982 C-133.23792833 842.58876372 -132.64906665 791.56596365 -132.06121826 740.54315186 C-132.04859564 739.44756102 -132.03597302 738.35197019 -132.02296789 737.22317964 C-131.81947847 719.56096367 -131.61601837 701.89874736 -131.41256216 684.23653101 C-130.82596965 633.31394699 -130.23915749 582.39136555 -129.6509161 531.46880054 C-129.63879876 530.4198243 -129.62668143 529.37084805 -129.6141969 528.29008465 C-129.34807638 505.25284277 -129.08184458 482.21560218 -128.81550765 459.1783628 C-128.70831623 449.90649934 -128.6011408 440.6346357 -128.49397087 431.36277199 C-128.4822418 430.34805815 -128.47051272 429.33334432 -128.45842822 428.28788158 C-128.08161555 395.68811849 -127.70610054 363.08834063 -127.33127795 330.48855461 C-126.95315348 297.60211516 -126.57373226 264.71569093 -126.19255242 231.82928674 C-126.13966618 227.26648356 -126.08679455 222.70368022 -126.03393173 218.14087677 C-126.02357018 217.24657512 -126.01320863 216.35227348 -126.0025331 215.43087178 C-125.83966217 201.37029445 -125.67815851 187.30970177 -125.51725028 173.24910185 C-125.35830745 159.36277277 -125.19785927 145.47646172 -125.03589897 131.59016749 C-124.94958782 124.18657149 -124.86387879 116.78296996 -124.78011472 109.37934466 C-124.38629863 74.60520807 -123.86057021 39.83710214 -123.11199951 5.06866455 C-121.21731711 4.74627574 -119.32231584 4.42576058 -117.42718506 4.10601807 C-116.37194138 3.92732681 -115.31669769 3.74863556 -114.22947693 3.56452942 C-76.89018301 -2.37464562 -37.6488655 -0.06512731 0 0 Z " fill="#C8F027" transform="translate(2416.1119995117188,590.9313354492188)"/>
<path d="M0 0 C25.20242009 0.65155668 50.37856628 1.72083982 75.56185484 2.8858242 C80.93232836 3.13383465 86.30292017 3.37926097 91.67349243 3.62512207 C100.65757618 4.0368204 109.64156056 4.45063453 118.62548828 4.86572266 C128.98284174 5.34423634 139.34035899 5.8190753 149.69796598 6.29206705 C159.73663084 6.75059788 169.77516587 7.21191549 179.81364822 7.67442322 C184.05813003 7.86992036 188.30265596 8.06441533 192.54722214 8.2580719 C197.53319137 8.48566452 202.51904235 8.71569653 207.50481415 8.94757271 C209.32559708 9.0318634 211.14641853 9.11532704 212.96728134 9.19787407 C221.99968389 9.60785419 231.00502246 10.04159142 240 11 C238.50511191 14.84138787 236.77355001 18.28931211 234.68359375 21.84765625 C234.3556633 22.40757263 234.02773285 22.96748901 233.68986511 23.54437256 C232.60950046 25.38598605 231.52373351 27.22434289 230.4375 29.0625 C229.67034754 30.36609271 228.90325878 31.66972291 228.13623047 32.97338867 C222.35009812 42.78977608 216.4539602 52.53669915 210.51928711 62.26391602 C205.11035637 71.13543688 199.79179983 80.05819799 194.5 89 C188.51121618 99.11588975 182.48434801 109.20641171 176.375 119.25 C175.85338287 120.10760925 175.85338287 120.10760925 175.32122803 120.98254395 C172.5364429 125.55961348 169.74745795 130.13411982 166.95825195 134.70849609 C164.51182882 138.72111141 162.06714645 142.73478024 159.625 146.75 C159.27741638 147.32141724 158.92983276 147.89283447 158.57171631 148.48156738 C152.40591592 158.62480945 146.33884619 168.82510653 140.2925415 179.03991699 C134.41334244 188.97038137 128.46565015 198.85577529 122.45800781 208.70898438 C116.73548064 218.09842559 111.10060119 227.53738361 105.5 237 C99.21953143 247.61130098 92.877075 258.18099227 86.45800781 268.70898438 C80.73548064 278.09842559 75.10060119 287.53738361 69.5 297 C63.21953143 307.61130098 56.877075 318.18099227 50.45800781 328.70898438 C44.73548064 338.09842559 39.10060119 347.53738361 33.5 357 C27.21953143 367.61130098 20.877075 378.18099227 14.45800781 388.70898438 C8.73548064 398.09842559 3.10060119 407.53738361 -2.5 417 C-8.78046857 427.61130098 -15.122925 438.18099227 -21.54199219 448.70898438 C-27.26451936 458.09842559 -32.89939881 467.53738361 -38.5 477 C-44.78008158 487.61064713 -51.1213157 498.18022552 -57.54098511 508.70697021 C-63.28919783 518.13619914 -68.94118206 527.61965675 -74.5625 537.125 C-80.91483757 547.86566739 -87.37191233 558.52949224 -93.94384766 569.13769531 C-99.62599703 578.33467808 -105.14804479 587.62176427 -110.65087891 596.92675781 C-116.20766696 606.32160125 -121.81689157 615.68104168 -127.5 625 C-133.57191373 634.95804524 -139.5594661 644.96304296 -145.5 655 C-151.78046857 665.61130098 -158.122925 676.18099227 -164.54199219 686.70898438 C-170.26451936 696.09842559 -175.89939881 705.53738361 -181.5 715 C-187.78046857 725.61130098 -194.122925 736.18099227 -200.54199219 746.70898438 C-206.26451936 756.09842559 -211.89939881 765.53738361 -217.5 775 C-223.78046857 785.61130098 -230.122925 796.18099227 -236.54199219 806.70898438 C-242.26451936 816.09842559 -247.89939881 825.53738361 -253.5 835 C-259.78046857 845.61130098 -266.122925 856.18099227 -272.54199219 866.70898438 C-278.26451936 876.09842559 -283.89939881 885.53738361 -289.5 895 C-295.78046857 905.61130098 -302.122925 916.18099227 -308.54199219 926.70898438 C-314.2645225 936.09843074 -319.89905041 945.53758594 -325.5 955 C-331.48901107 965.11575766 -337.51565004 975.2064085 -343.625 985.25 C-343.97274475 985.8217395 -344.3204895 986.393479 -344.67877197 986.98254395 C-347.4635571 991.55961348 -350.25254205 996.13411982 -353.04174805 1000.70849609 C-355.48817118 1004.72111141 -357.93285355 1008.73478024 -360.375 1012.75 C-360.72258362 1013.32141724 -361.07016724 1013.89283447 -361.42828369 1014.48156738 C-367.59408408 1024.62480945 -373.66115381 1034.82510653 -379.7074585 1045.03991699 C-385.58665756 1054.97038137 -391.53434985 1064.85577529 -397.54199219 1074.70898438 C-403.26451936 1084.09842559 -408.89939881 1093.53738361 -414.5 1103 C-420.78046857 1113.61130098 -427.122925 1124.18099227 -433.54199219 1134.70898438 C-439.26451936 1144.09842559 -444.89939881 1153.53738361 -450.5 1163 C-456.78046857 1173.61130098 -463.122925 1184.18099227 -469.54199219 1194.70898438 C-475.26451936 1204.09842559 -480.89939881 1213.53738361 -486.5 1223 C-492.78046857 1233.61130098 -499.122925 1244.18099227 -505.54199219 1254.70898438 C-511.26451936 1264.09842559 -516.89939881 1273.53738361 -522.5 1283 C-528.78046857 1293.61130098 -535.122925 1304.18099227 -541.54199219 1314.70898438 C-547.26451936 1324.09842559 -552.89939881 1333.53738361 -558.5 1343 C-565.11812745 1354.18179981 -571.81260823 1365.31274361 -578.57714844 1376.40649414 C-584.03941578 1385.37496386 -589.40397336 1394.39936044 -594.75 1403.4375 C-600.40597959 1412.99912023 -606.12785385 1422.50709828 -612.01757812 1431.92724609 C-617.30512851 1440.4194226 -622.38683561 1449.03132811 -627.47949219 1457.64111328 C-633.09373784 1467.13101385 -638.75962741 1476.58586991 -644.5 1486 C-650.57197045 1495.95801018 -656.5594666 1505.96304382 -662.5 1516 C-668.78046857 1526.61130098 -675.122925 1537.18099227 -681.54199219 1547.70898438 C-687.26451936 1557.09842559 -692.89939881 1566.53738361 -698.5 1576 C-704.78046857 1586.61130098 -711.122925 1597.18099227 -717.54199219 1607.70898438 C-723.26451936 1617.09842559 -728.89939881 1626.53738361 -734.5 1636 C-740.78046857 1646.61130098 -747.122925 1657.18099227 -753.54199219 1667.70898438 C-759.66948448 1677.7628866 -765.69218087 1687.87643077 -771.68887329 1698.00878906 C-778.87322881 1710.14432696 -786.16089487 1722.21430146 -793.49995422 1734.25683594 C-794.15609365 1735.33350525 -794.81223307 1736.41017456 -795.4882555 1737.51947021 C-795.98713119 1738.33804504 -796.48600687 1739.15661987 -797 1740 C-758.17294255 1740.08468319 -719.35854655 1739.91059375 -680.53380585 1739.42714429 C-674.46525357 1739.35225311 -668.39666228 1739.28072025 -662.32807183 1739.20900106 C-650.2948501 1739.06666647 -638.2616714 1738.92099108 -626.22851562 1738.77319336 C-614.74286644 1738.63212456 -603.25719284 1738.49333643 -591.77148438 1738.35717773 C-590.70921265 1738.34458436 -590.70921265 1738.34458436 -589.62548089 1738.33173657 C-588.56443348 1738.31915856 -588.56443348 1738.31915856 -587.48195076 1738.30632645 C-586.05527877 1738.28941372 -584.62860679 1738.27250013 -583.20193481 1738.25558567 C-582.49710059 1738.24722959 -581.79226637 1738.23887351 -581.06607354 1738.23026422 C-569.85053254 1738.097205 -558.63501649 1737.96206371 -547.41950285 1737.82672139 C-542.82127812 1737.77125673 -538.22304842 1737.71621753 -533.62481689 1737.66131783 C-496.08122779 1737.21192699 -458.54066901 1736.64435103 -421 1736 C-420.50900912 1735.07334817 -420.01801825 1734.14669634 -419.51214886 1733.19196415 C-418.86020763 1731.96163916 -418.20826465 1730.7313151 -417.55632019 1729.50099182 C-417.23362892 1728.89196219 -416.91093764 1728.28293256 -416.57846785 1727.65544748 C-410.68184526 1716.52787981 -404.75478077 1705.43171638 -398.5 1694.5 C-393.13356476 1685.11900521 -388.03102594 1675.61462697 -382.97528076 1666.06430054 C-377.97068049 1656.61666983 -372.81515022 1647.27249662 -367.51171875 1637.98828125 C-363.79033063 1631.45497143 -360.2548928 1624.844849 -356.79174805 1618.171875 C-353.64262542 1612.13840954 -350.31564633 1606.22026331 -346.9375 1600.3125 C-341.54258425 1590.86632322 -336.39334387 1581.30470699 -331.3125 1571.6875 C-326.49648363 1562.57228548 -321.67109295 1553.46951907 -316.61572266 1544.48388672 C-314.25966083 1540.29007653 -311.95590814 1536.07192379 -309.68359375 1531.83203125 C-309.10448242 1530.75308594 -308.52537109 1529.67414063 -307.92871094 1528.5625 C-306.79904909 1526.45396683 -305.67316621 1524.34340302 -304.55175781 1522.23046875 C-299.86753421 1513.49667707 -295.83985322 1507.10475754 -287.6875 1501.375 C-286.25180262 1500.33362319 -284.81826948 1499.28925728 -283.38671875 1498.2421875 C-282.29302979 1497.44312988 -282.29302979 1497.44312988 -281.17724609 1496.62792969 C-277.6967034 1494.02552346 -274.35060458 1491.26643269 -271 1488.5 C-265.12134248 1483.663994 -259.11764631 1479.04802334 -253 1474.51953125 C-248.22804344 1470.96852451 -243.59416516 1467.2775244 -239 1463.5 C-233.09418007 1458.64500175 -227.06803035 1454.0004039 -220.92749023 1449.44702148 C-215.75984397 1445.60302017 -210.72464549 1441.61636383 -205.71459961 1437.57006836 C-201.03493353 1433.80100031 -196.28454183 1430.13475983 -191.5 1426.5 C-185.38953732 1421.85640833 -179.36255572 1417.12397143 -173.38500977 1412.31079102 C-168.91316778 1408.71510388 -164.38927963 1405.19542965 -159.83178711 1401.70922852 C-155.96860713 1398.75205972 -152.13384652 1395.7610054 -148.3125 1392.75 C-142.89125335 1388.47892332 -137.45053928 1384.23362929 -132 1380 C-126.65509121 1375.84789584 -121.31767476 1371.6869316 -116 1367.5 C-106.92215892 1360.35403533 -97.79164276 1353.27575265 -88.66796875 1346.18847656 C-80.538745 1339.87295777 -72.41518487 1333.55106865 -64.32714844 1327.18286133 C-58.79331593 1322.82929401 -53.23226345 1318.51096976 -47.671875 1314.19140625 C-43.10385976 1310.64109508 -38.5455646 1307.0790019 -34 1303.5 C-24.92215892 1296.35403533 -15.79164276 1289.27575265 -6.66796875 1282.18847656 C1.461255 1275.87295777 9.58481513 1269.55106865 17.67285156 1263.18286133 C23.1968825 1258.83700509 28.7467011 1254.52451021 34.29956055 1250.21557617 C37.90579508 1247.41519978 41.50485375 1244.60696488 45.08203125 1241.76953125 C45.71431641 1241.26873047 46.34660156 1240.76792969 46.99804688 1240.25195312 C48.16673219 1239.32480449 49.33355158 1238.39529647 50.49804688 1237.46289062 C53.54263602 1235.04899319 56.62034432 1232.91784527 60 1231 C59.38600991 1235.09670697 58.03474885 1238.22422689 56.11328125 1241.8828125 C55.21113892 1243.61265381 55.21113892 1243.61265381 54.29077148 1245.37744141 C53.63141883 1246.62666517 52.97199306 1247.87585035 52.3125 1249.125 C51.63095273 1250.42723735 50.95005422 1251.72981443 50.26977539 1253.03271484 C48.86858082 1255.71472496 47.46431122 1258.39508916 46.05761719 1261.07421875 C42.99437002 1266.91244955 39.96794156 1272.76968767 36.9375 1278.625 C35.78278478 1280.85168319 34.62783648 1283.07824552 33.47265625 1285.3046875 C31.12512857 1289.83012189 28.77885199 1294.35620159 26.43359375 1298.8828125 C20.50901261 1310.31655633 14.57210346 1321.74358565 8.60888672 1333.15722656 C4.22703786 1341.55083081 -0.12165948 1349.9614482 -4.46798706 1358.37347412 C-8.62823134 1366.42461801 -12.80221651 1374.46834517 -17 1382.5 C-21.47979056 1391.07227062 -25.93377857 1399.65769785 -30.375 1408.25 C-30.6903067 1408.8599884 -31.0056134 1409.46997681 -31.33047485 1410.09844971 C-32.60584127 1412.56579492 -33.88119232 1415.03314808 -35.1565094 1417.5005188 C-42.72361584 1432.13915475 -50.307141 1446.76922649 -57.9375 1461.375 C-62.43749532 1469.98925523 -66.91227026 1478.61639358 -71.375 1487.25 C-71.69021606 1487.85980713 -72.00543213 1488.46961426 -72.3302002 1489.09790039 C-73.60566474 1491.56543811 -74.88110891 1494.03298637 -76.15652466 1496.50054932 C-84.20422335 1512.06888691 -92.27591617 1527.62458312 -100.39135742 1543.15771484 C-104.77314712 1551.5511447 -109.12174303 1559.9616099 -113.46798706 1568.37347412 C-117.62823134 1576.42461801 -121.80221651 1584.46834517 -126 1592.5 C-130.47979056 1601.07227062 -134.93377857 1609.65769785 -139.375 1618.25 C-139.6903067 1618.8599884 -140.0056134 1619.46997681 -140.33047485 1620.09844971 C-141.60584127 1622.56579492 -142.88119232 1625.03314808 -144.1565094 1627.5005188 C-151.72361584 1642.13915475 -159.307141 1656.76922649 -166.9375 1671.375 C-171.43749532 1679.98925523 -175.91227026 1688.61639358 -180.375 1697.25 C-180.69021606 1697.85980713 -181.00543213 1698.46961426 -181.3302002 1699.09790039 C-182.60566474 1701.56543811 -183.88110891 1704.03298637 -185.15652466 1706.50054932 C-193.20422335 1722.06888691 -201.27591617 1737.62458312 -209.39135742 1753.15771484 C-213.77314712 1761.5511447 -218.12174303 1769.9616099 -222.46798706 1778.37347412 C-226.62823134 1786.42461801 -230.80221651 1794.46834517 -235 1802.5 C-239.47979056 1811.07227062 -243.93377857 1819.65769785 -248.375 1828.25 C-248.6903067 1828.8599884 -249.0056134 1829.46997681 -249.33047485 1830.09844971 C-250.60584127 1832.56579492 -251.88119232 1835.03314808 -253.1565094 1837.5005188 C-261.19938123 1853.05952722 -269.25988672 1868.60934072 -277.37817383 1884.12915039 C-280.22906684 1889.58511262 -283.05851274 1895.0515708 -285.87109375 1900.52734375 C-286.54234232 1901.83222322 -287.21364766 1903.13707348 -287.88500977 1904.44189453 C-288.86669259 1906.34986162 -289.84730857 1908.25832828 -290.82394409 1910.16888428 C-291.73114662 1911.94357661 -292.64287077 1913.71595522 -293.5546875 1915.48828125 C-294.07530762 1916.50446533 -294.59592773 1917.52064941 -295.13232422 1918.56762695 C-295.74865723 1919.70031006 -296.36499023 1920.83299316 -297 1922 C-297.27371681 1922.81905445 -297.54743362 1923.6381089 -297.82944489 1924.48198318 C-299.1755141 1927.72463834 -300.37969173 1929.63550587 -303 1932 C-309.2644645 1933.57170179 -315.50543884 1933.27277067 -321.92822266 1933.15795898 C-323.99339808 1933.1587018 -326.0585759 1933.16407075 -328.12372971 1933.17354774 C-332.74308592 1933.18499986 -337.36091819 1933.16418512 -341.98008347 1933.12095833 C-349.13193182 1933.05520028 -356.28312924 1933.04768823 -363.43519653 1933.05567601 C-367.01004571 1933.05960604 -370.58489519 1933.06141852 -374.15974617 1933.06277752 C-375.26469419 1933.06320747 -375.26469419 1933.06320747 -376.3919644 1933.06364611 C-381.88119166 1933.06457103 -387.37034845 1933.05470047 -392.8595562 1933.04069996 C-419.77574246 1932.9740899 -446.68972164 1933.06917095 -473.60555667 1933.21243933 C-477.10502179 1933.2310638 -480.60448806 1933.24945556 -484.10395479 1933.2677753 C-488.87170796 1933.29274458 -493.63946105 1933.31772878 -498.40721393 1933.34275448 C-499.60510904 1933.34904087 -500.80300415 1933.35532726 -502.03719911 1933.36180414 C-504.47855063 1933.37464727 -506.91990191 1933.3875376 -509.36125293 1933.4004743 C-537.58743241 1933.54996793 -565.81372131 1933.66827252 -594.04006177 1933.78267595 C-598.03469587 1933.79887378 -602.02932973 1933.81513084 -606.02396345 1933.83142018 C-606.6856881 1933.83411853 -607.34741275 1933.83681688 -608.02918966 1933.839597 C-613.39143206 1933.86146721 -618.75367441 1933.8833494 -624.1159167 1933.90524714 C-627.47686981 1933.91897172 -630.83782298 1933.9326821 -634.19877627 1933.94636111 C-654.12407015 1934.02748078 -674.0493437 1934.11262307 -693.97460938 1934.20043945 C-794.98607439 1934.64504785 -895.9968925 1935.04194594 -1150 1935 C-1149.04317672 1933.24129087 -1148.08580581 1931.48287966 -1147.12820435 1929.72459412 C-1146.59512728 1928.7453469 -1146.06205021 1927.76609968 -1145.51281929 1926.75717831 C-1143.76300055 1923.5680583 -1141.95814069 1920.42253115 -1140.1171875 1917.28515625 C-1139.78124573 1916.71185577 -1139.44530396 1916.1385553 -1139.09918213 1915.54788208 C-1138.02628237 1913.71834111 -1136.95079824 1911.89033787 -1135.875 1910.0625 C-1135.11309219 1908.76539631 -1134.35121104 1907.46827695 -1133.58935547 1906.17114258 C-1129.00941536 1898.38020869 -1124.39455384 1890.61122045 -1119.72875977 1882.87133789 C-1116.67800162 1877.80749791 -1113.64945252 1872.73105101 -1110.63671875 1867.64453125 C-1110.24808655 1866.9884639 -1109.85945435 1866.33239655 -1109.45904541 1865.65644836 C-1108.65328544 1864.29611049 -1107.84754024 1862.93576388 -1107.04180908 1861.57540894 C-1106.63613708 1860.89052399 -1106.23046509 1860.20563904 -1105.8125 1859.5 C-1105.40650574 1858.81455109 -1105.00051147 1858.12910217 -1104.58221436 1857.42288208 C-1098.86978582 1847.7831766 -1093.08985944 1838.18794883 -1087.25 1828.625 C-1081.18449471 1818.69064244 -1075.29971959 1808.66325661 -1069.51367188 1798.56347656 C-1064.74359329 1790.24983906 -1059.85051322 1782.01713485 -1054.90136719 1773.80908203 C-1050.1771756 1765.97238155 -1045.49974011 1758.10917937 -1040.83764648 1750.23547363 C-1034.37615431 1739.32300592 -1027.85934458 1728.44855273 -1021.25 1717.625 C-1015.18455498 1707.69060513 -1009.29972055 1697.66325827 -1003.51367188 1687.56347656 C-998.74359329 1679.24983906 -993.85051322 1671.01713485 -988.90136719 1662.80908203 C-984.17690007 1654.97192448 -979.49919152 1647.10826332 -974.83682251 1639.23410034 C-968.31376389 1628.21755799 -961.73357818 1617.24004817 -955.0625 1606.3125 C-949.71028633 1597.54418042 -944.49519744 1588.71651717 -939.43994141 1579.77392578 C-935.10507337 1572.12596956 -930.59255396 1564.59125591 -926.05371094 1557.06298828 C-921.27794428 1549.13983036 -916.54789266 1541.19088079 -911.83462524 1533.23043823 C-905.37428758 1522.31956243 -898.85832345 1511.44688051 -892.25 1500.625 C-886.18455498 1490.69060513 -880.29972055 1480.66325827 -874.51367188 1470.56347656 C-869.74359329 1462.24983906 -864.85051322 1454.01713485 -859.90136719 1445.80908203 C-855.1771756 1437.97238155 -850.49974011 1430.10917937 -845.83764648 1422.23547363 C-839.37615431 1411.32300592 -832.85934458 1400.44855273 -826.25 1389.625 C-820.18455498 1379.69060513 -814.29972055 1369.66325827 -808.51367188 1359.56347656 C-803.74359329 1351.24983906 -798.85051322 1343.01713485 -793.90136719 1334.80908203 C-789.17690007 1326.97192448 -784.49919152 1319.10826332 -779.83682251 1311.23410034 C-773.31376389 1300.21755799 -766.73357818 1289.24004817 -760.0625 1278.3125 C-754.71028633 1269.54418042 -749.49519744 1260.71651717 -744.43994141 1251.77392578 C-740.10507337 1244.12596956 -735.59255396 1236.59125591 -731.05371094 1229.06298828 C-726.27794428 1221.13983036 -721.54789266 1213.19088079 -716.83462524 1205.23043823 C-710.37428758 1194.31956243 -703.85832345 1183.44688051 -697.25 1172.625 C-691.18455498 1162.69060513 -685.29972055 1152.66325827 -679.51367188 1142.56347656 C-674.74359329 1134.24983906 -669.85051322 1126.01713485 -664.90136719 1117.80908203 C-660.1771756 1109.97238155 -655.49974011 1102.10917937 -650.83764648 1094.23547363 C-644.37615431 1083.32300592 -637.85934458 1072.44855273 -631.25 1061.625 C-625.18455498 1051.69060513 -619.29972055 1041.66325827 -613.51367188 1031.56347656 C-608.74359329 1023.24983906 -603.85051322 1015.01713485 -598.90136719 1006.80908203 C-594.1771756 998.97238155 -589.49974011 991.10917937 -584.83764648 983.23547363 C-578.37615488 972.32300689 -571.85941076 961.44851185 -565.25 950.625 C-559.11279817 940.57358269 -553.15933343 930.42910008 -547.30273438 920.21191406 C-543.22254925 913.09869015 -539.06648119 906.03916247 -534.82763672 899.01953125 C-531.73951113 893.90339801 -528.67402055 888.77462216 -525.62890625 883.6328125 C-525.24076752 882.97748535 -524.85262878 882.3221582 -524.45272827 881.64697266 C-523.64839089 880.28879323 -522.84408018 878.93059799 -522.03979492 877.5723877 C-515.5108308 866.54769862 -508.92783069 855.56015244 -502.25 844.625 C-496.18449471 834.69064244 -490.29971959 824.66325661 -484.51367188 814.56347656 C-479.74359329 806.24983906 -474.85051322 798.01713485 -469.90136719 789.80908203 C-465.1771756 781.97238155 -460.49974011 774.10917937 -455.83764648 766.23547363 C-449.37615431 755.32300592 -442.85934458 744.44855273 -436.25 733.625 C-430.18455498 723.69060513 -424.29972055 713.66325827 -418.51367188 703.56347656 C-413.74359329 695.24983906 -408.85051322 687.01713485 -403.90136719 678.80908203 C-399.1771756 670.97238155 -394.49974011 663.10917937 -389.83764648 655.23547363 C-383.37615488 644.32300689 -376.85941076 633.44851185 -370.25 622.625 C-364.11279817 612.57358269 -358.15933343 602.42910008 -352.30273438 592.21191406 C-348.22254925 585.09869015 -344.06648119 578.03916247 -339.82763672 571.01953125 C-336.73951113 565.90339801 -333.67402055 560.77462216 -330.62890625 555.6328125 C-330.24076752 554.97748535 -329.85262878 554.3221582 -329.45272827 553.64697266 C-328.64839089 552.28879323 -327.84408018 550.93059799 -327.03979492 549.5723877 C-320.5108308 538.54769862 -313.92783069 527.56015244 -307.25 516.625 C-301.18449471 506.69064244 -295.29971959 496.66325661 -289.51367188 486.56347656 C-284.74359329 478.24983906 -279.85051322 470.01713485 -274.90136719 461.80908203 C-270.1771756 453.97238155 -265.49974011 446.10917937 -260.83764648 438.23547363 C-254.37615431 427.32300592 -247.85934458 416.44855273 -241.25 405.625 C-235.18455498 395.69060513 -229.29972055 385.66325827 -223.51367188 375.56347656 C-218.74359329 367.24983906 -213.85051322 359.01713485 -208.90136719 350.80908203 C-204.1771756 342.97238155 -199.49974011 335.10917937 -194.83764648 327.23547363 C-188.37615488 316.32300689 -181.85941076 305.44851185 -175.25 294.625 C-169.11279817 284.57358269 -163.15933343 274.42910008 -157.30273438 264.21191406 C-153.22254925 257.09869015 -149.06648119 250.03916247 -144.82763672 243.01953125 C-141.73951113 237.90339801 -138.67402055 232.77462216 -135.62890625 227.6328125 C-135.24076752 226.97748535 -134.85262878 226.3221582 -134.45272827 225.64697266 C-133.64839089 224.28879323 -132.84408018 222.93059799 -132.03979492 221.5723877 C-125.5108308 210.54769862 -118.92783069 199.56015244 -112.25 188.625 C-106.18449471 178.69064244 -100.29971959 168.66325661 -94.51367188 158.56347656 C-89.74359329 150.24983906 -84.85051322 142.01713485 -79.90136719 133.80908203 C-75.1771756 125.97238155 -70.49974011 118.10917937 -65.83764648 110.23547363 C-59.37615625 99.32300921 -52.85955307 88.44842344 -46.25 77.625 C-40.23734294 67.77863848 -34.41059582 57.83763187 -28.68286133 47.82275391 C-22.00286925 36.18319874 -15.01493452 24.73490209 -8.00366211 13.29296875 C-6.28359117 10.46607502 -4.57650612 7.63213364 -2.87477112 4.79418945 C-2.33597604 3.89577835 -1.79718096 2.99736725 -1.24205875 2.07173157 C-0.62723967 1.04622444 -0.62723967 1.04622444 0 0 Z " fill="#A5F41C" transform="translate(1724,560)"/>
<path d="M0 0 C-1.11654924 2.24706828 -2.23459727 4.49336957 -3.35351562 6.73925781 C-3.66774475 7.37203644 -3.98197388 8.00481506 -4.3057251 8.6567688 C-6.53864554 13.134646 -8.90325142 17.47603959 -11.5 21.75 C-12.36058494 23.19068419 -13.21987082 24.63214485 -14.078125 26.07421875 C-14.77325195 27.24090088 -14.77325195 27.24090088 -15.48242188 28.43115234 C-18.44749656 33.4502186 -21.34340382 38.50942569 -24.25 43.5625 C-29.1411446 52.05673852 -34.05378606 60.5377097 -39 69 C-43.86107581 77.3174901 -48.69148209 85.65201634 -53.5 94 C-58.30851844 102.34798459 -63.13905683 110.68243184 -68 119 C-75.38414893 131.63743454 -82.69490135 144.31675298 -90 157 C-97.87580724 170.6741218 -105.76855846 184.33736974 -113.73071289 197.96142578 C-118.01244917 205.29312479 -122.26220007 212.64282981 -126.5 220 C-131.30851844 228.34798459 -136.13905683 236.68243184 -141 245 C-148.38414893 257.63743454 -155.69490135 270.31675298 -163 283 C-170.87580724 296.6741218 -178.76855846 310.33736974 -186.73071289 323.96142578 C-191.01244917 331.29312479 -195.26220007 338.64282981 -199.5 346 C-204.30851844 354.34798459 -209.13905683 362.68243184 -214 371 C-221.38414893 383.63743454 -228.69490135 396.31675298 -236 409 C-243.87580724 422.6741218 -251.76855846 436.33736974 -259.73071289 449.96142578 C-264.01244917 457.29312479 -268.26220007 464.64282981 -272.5 472 C-277.30851844 480.34798459 -282.13905683 488.68243184 -287 497 C-294.38414893 509.63743454 -301.69490135 522.31675298 -309 535 C-316.87580724 548.6741218 -324.76855846 562.33736974 -332.73071289 575.96142578 C-337.01244917 583.29312479 -341.26220007 590.64282981 -345.5 598 C-350.30851844 606.34798459 -355.13905683 614.68243184 -360 623 C-367.38414893 635.63743454 -374.69490135 648.31675298 -382 661 C-389.87580724 674.6741218 -397.76855846 688.33736974 -405.73071289 701.96142578 C-410.01244917 709.29312479 -414.26220007 716.64282981 -418.5 724 C-423.30851844 732.34798459 -428.13905683 740.68243184 -433 749 C-440.38414893 761.63743454 -447.69490135 774.31675298 -455 787 C-462.87580724 800.6741218 -470.76855846 814.33736974 -478.73071289 827.96142578 C-483.01244917 835.29312479 -487.26220007 842.64282981 -491.5 850 C-496.30851844 858.34798459 -501.13905683 866.68243184 -506 875 C-513.38414893 887.63743454 -520.69490135 900.31675298 -528 913 C-535.87580724 926.6741218 -543.76855846 940.33736974 -551.73071289 953.96142578 C-556.01244917 961.29312479 -560.26220007 968.64282981 -564.5 976 C-569.30851844 984.34798459 -574.13905683 992.68243184 -579 1001 C-586.38414893 1013.63743454 -593.69490135 1026.31675298 -601 1039 C-608.87580724 1052.6741218 -616.76855846 1066.33736974 -624.73071289 1079.96142578 C-629.01244917 1087.29312479 -633.26220007 1094.64282981 -637.5 1102 C-642.30851844 1110.34798459 -647.13905683 1118.68243184 -652 1127 C-659.38414893 1139.63743454 -666.69490135 1152.31675298 -674 1165 C-681.87580724 1178.6741218 -689.76855846 1192.33736974 -697.73071289 1205.96142578 C-702.01244917 1213.29312479 -706.26220007 1220.64282981 -710.5 1228 C-715.30851844 1236.34798459 -720.13905683 1244.68243184 -725 1253 C-732.38414893 1265.63743454 -739.69490135 1278.31675298 -747 1291 C-754.87580724 1304.6741218 -762.76855846 1318.33736974 -770.73071289 1331.96142578 C-775.01244917 1339.29312479 -779.26220007 1346.64282981 -783.5 1354 C-788.30851844 1362.34798459 -793.13905683 1370.68243184 -798 1379 C-805.38414893 1391.63743454 -812.69490135 1404.31675298 -820 1417 C-827.87580724 1430.6741218 -835.76855846 1444.33736974 -843.73071289 1457.96142578 C-848.01244917 1465.29312479 -852.26220007 1472.64282981 -856.5 1480 C-861.30851844 1488.34798459 -866.13905683 1496.68243184 -871 1505 C-878.38414893 1517.63743454 -885.69490135 1530.31675298 -893 1543 C-900.87580724 1556.6741218 -908.76855846 1570.33736974 -916.73071289 1583.96142578 C-921.01244917 1591.29312479 -925.26220007 1598.64282981 -929.5 1606 C-934.30851844 1614.34798459 -939.13905683 1622.68243184 -944 1631 C-951.38414893 1643.63743454 -958.69490135 1656.31675298 -966 1669 C-973.87580724 1682.6741218 -981.76855846 1696.33736974 -989.73071289 1709.96142578 C-994.01244917 1717.29312479 -998.26220007 1724.64282981 -1002.5 1732 C-1007.30851844 1740.34798459 -1012.13905683 1748.68243184 -1017 1757 C-1024.38414893 1769.63743454 -1031.69490135 1782.31675298 -1039 1795 C-1046.87580724 1808.6741218 -1054.76855846 1822.33736974 -1062.73071289 1835.96142578 C-1067.01244917 1843.29312479 -1071.26220007 1850.64282981 -1075.5 1858 C-1080.87406175 1867.32981442 -1086.2822795 1876.63886115 -1091.71508789 1885.93457031 C-1096.76319784 1894.57868221 -1101.76907715 1903.24677144 -1106.76367188 1911.921875 C-1107.92333844 1913.93555958 -1109.08522235 1915.94796911 -1110.24951172 1917.95898438 C-1111.48740436 1920.10949912 -1112.71169037 1922.26787323 -1113.92626953 1924.43164062 C-1114.55001465 1925.53185547 -1115.17375977 1926.63207031 -1115.81640625 1927.765625 C-1116.3791626 1928.76883789 -1116.94191895 1929.77205078 -1117.52172852 1930.80566406 C-1118.00955811 1931.52979492 -1118.4973877 1932.25392578 -1119 1933 C-1119.66 1933 -1120.32 1933 -1121 1933 C-1119.72533895 1880.11218831 -1118.35293745 1827.22769861 -1116.88925269 1774.34479168 C-1116.70154964 1767.56271228 -1116.51431528 1760.78062006 -1116.32736397 1753.9985199 C-1116.30017006 1753.01203188 -1116.27297615 1752.02554387 -1116.24495818 1751.00916228 C-1116.18963644 1749.00227584 -1116.13431525 1746.99538939 -1116.07899458 1744.98850292 C-1115.56887572 1726.48486093 -1115.05729338 1707.98125965 -1114.54518927 1689.47767252 C-1114.07891906 1672.62858439 -1113.61446148 1655.77944685 -1113.1508277 1638.93028599 C-1112.66943049 1621.43610615 -1112.18688116 1603.94195844 -1111.70307738 1586.44784498 C-1111.64832322 1584.46782912 -1111.59357084 1582.4878132 -1111.53882027 1580.50779724 C-1111.51190985 1579.53460113 -1111.48499944 1578.56140502 -1111.45727355 1577.55871812 C-1111.26977458 1570.77529145 -1111.08301017 1563.99184481 -1110.89655876 1557.20838928 C-1110.66982949 1548.96005981 -1110.44199081 1540.71176185 -1110.21277707 1532.46350104 C-1110.09642797 1528.27566065 -1109.98054271 1524.08780899 -1109.86604309 1519.8999176 C-1109.62833841 1511.21790307 -1109.37848371 1502.53642971 -1109.11206889 1493.8552475 C-1109.00267521 1490.09202898 -1108.91318138 1486.32873971 -1108.82638741 1482.56494141 C-1108.76299308 1480.31154611 -1108.69900093 1478.05816752 -1108.6342926 1475.80480957 C-1108.61682667 1474.80959305 -1108.59936073 1473.81437654 -1108.58136553 1472.78900194 C-1108.2973543 1463.9979256 -1105.6674967 1458.19974298 -1100.625 1450.9375 C-1099.85447403 1449.7419226 -1099.08966704 1448.54264361 -1098.33007812 1447.34008789 C-1096.73428538 1444.82380243 -1095.11507536 1442.32523696 -1093.47753906 1439.8359375 C-1089.67304553 1434.00539337 -1086.20333712 1427.97497626 -1082.68988037 1421.96658325 C-1080.70488259 1418.58159947 -1078.69716367 1415.21022519 -1076.6875 1411.83984375 C-1076.2937619 1411.1793956 -1075.9000238 1410.51894745 -1075.49435425 1409.83848572 C-1070.85393571 1402.06581163 -1066.14294261 1394.33627269 -1061.43164062 1386.60644531 C-1055.10086636 1376.20930891 -1048.88209486 1365.74674484 -1042.68164062 1355.27148438 C-1041.93361502 1354.00779991 -1041.18556838 1352.7441279 -1040.4375 1351.48046875 C-1040.07015747 1350.85988083 -1039.70281494 1350.23929291 -1039.32434082 1349.59989929 C-1036.35977528 1344.59631835 -1033.36867096 1339.60897197 -1030.37255859 1334.62423706 C-1027.75415772 1330.26484646 -1025.15284054 1325.8956487 -1022.5625 1321.51953125 C-1022.19419067 1320.89737228 -1021.82588135 1320.27521332 -1021.44641113 1319.63420105 C-1020.68911516 1318.35485559 -1019.9318318 1317.07550267 -1019.17456055 1315.79614258 C-1012.67865267 1304.825606 -1006.13567064 1293.88657369 -999.5 1283 C-992.56403201 1271.61973602 -985.73763649 1260.17743126 -978.9453125 1248.7109375 C-973.5614005 1239.62279883 -968.14273366 1230.55641491 -962.69824219 1221.50439453 C-958.04984425 1213.76822079 -953.44254385 1206.00828817 -948.84277344 1198.24316406 C-942.4541624 1187.45886076 -936.02394476 1176.70301202 -929.5 1166 C-923.47892201 1156.12012808 -917.52564774 1146.20228342 -911.625 1136.25 C-911.23024475 1135.5842395 -910.8354895 1134.918479 -910.42877197 1134.23254395 C-907.61716322 1129.48955697 -904.80827663 1124.74496044 -902 1120 C-898.79352544 1114.58223071 -895.58586409 1109.16516922 -892.375 1103.75 C-891.98008362 1103.08391724 -891.58516724 1102.41783447 -891.17828369 1101.73156738 C-885.33445724 1091.88017846 -879.42108968 1082.07341017 -873.45947266 1072.29293823 C-866.87139613 1061.4813348 -860.39786422 1050.6038431 -853.9453125 1039.7109375 C-848.5614005 1030.62279883 -843.14273366 1021.55641491 -837.69824219 1012.50439453 C-833.04984425 1004.76822079 -828.44254385 997.00828817 -823.84277344 989.24316406 C-817.4541624 978.45886076 -811.02394476 967.70301202 -804.5 957 C-798.47892201 947.12012808 -792.52564774 937.20228342 -786.625 927.25 C-786.23024475 926.5842395 -785.8354895 925.918479 -785.42877197 925.23254395 C-782.61716322 920.48955697 -779.80827663 915.74496044 -777 911 C-773.79352544 905.58223071 -770.58586409 900.16516922 -767.375 894.75 C-766.98008362 894.08391724 -766.58516724 893.41783447 -766.17828369 892.73156738 C-759.99837132 882.31361252 -753.73535766 871.94880548 -747.43115234 861.60571289 C-741.10061273 851.20877688 -734.88194572 840.74649287 -728.68164062 830.27148438 C-727.93361502 829.00779991 -727.18556838 827.7441279 -726.4375 826.48046875 C-726.07015747 825.85988083 -725.70281494 825.23929291 -725.32434082 824.59989929 C-722.35977528 819.59631835 -719.36867096 814.60897197 -716.37255859 809.62423706 C-713.75415772 805.26484646 -711.15284054 800.8956487 -708.5625 796.51953125 C-708.19419067 795.89737228 -707.82588135 795.27521332 -707.44641113 794.63420105 C-706.68911516 793.35485559 -705.9318318 792.07550267 -705.17456055 790.79614258 C-698.67865267 779.825606 -692.13567064 768.88657369 -685.5 758 C-678.56403201 746.61973602 -671.73763649 735.17743126 -664.9453125 723.7109375 C-659.5614005 714.62279883 -654.14273366 705.55641491 -648.69824219 696.50439453 C-644.04984425 688.76822079 -639.44254385 681.00828817 -634.84277344 673.24316406 C-628.4541624 662.45886076 -622.02394476 651.70301202 -615.5 641 C-609.47892201 631.12012808 -603.52564774 621.20228342 -597.625 611.25 C-597.23024475 610.5842395 -596.8354895 609.918479 -596.42877197 609.23254395 C-593.61716322 604.48955697 -590.80827663 599.74496044 -588 595 C-584.79352544 589.58223071 -581.58586409 584.16516922 -578.375 578.75 C-577.98008362 578.08391724 -577.58516724 577.41783447 -577.17828369 576.73156738 C-570.99837132 566.31361252 -564.73535766 555.94880548 -558.43115234 545.60571289 C-552.10061273 535.20877688 -545.88194572 524.74649287 -539.68164062 514.27148438 C-538.93361502 513.00779991 -538.18556838 511.7441279 -537.4375 510.48046875 C-537.07015747 509.85988083 -536.70281494 509.23929291 -536.32434082 508.59989929 C-533.35977528 503.59631835 -530.36867096 498.60897197 -527.37255859 493.62423706 C-524.75415772 489.26484646 -522.15284054 484.8956487 -519.5625 480.51953125 C-519.19419067 479.89737228 -518.82588135 479.27521332 -518.44641113 478.63420105 C-517.68911516 477.35485559 -516.9318318 476.07550267 -516.17456055 474.79614258 C-509.67865267 463.825606 -503.13567064 452.88657369 -496.5 442 C-489.56403201 430.61973602 -482.73763649 419.17743126 -475.9453125 407.7109375 C-470.5614005 398.62279883 -465.14273366 389.55641491 -459.69824219 380.50439453 C-455.04984425 372.76822079 -450.44254385 365.00828817 -445.84277344 357.24316406 C-439.4541624 346.45886076 -433.02394476 335.70301202 -426.5 325 C-420.47892201 315.12012808 -414.52564774 305.20228342 -408.625 295.25 C-408.23024475 294.5842395 -407.8354895 293.918479 -407.42877197 293.23254395 C-404.61716322 288.48955697 -401.80827663 283.74496044 -399 279 C-395.79352545 273.58223071 -392.5858692 268.16516618 -389.375 262.75 C-388.985401 262.09289032 -388.595802 261.43578064 -388.19439697 260.75875854 C-380.42332333 247.65867751 -372.53376551 234.63196988 -364.59960938 221.63012695 C-363.05643355 219.09278978 -361.52792866 216.54654777 -360 214 C-563.94 217.63 -767.88 221.26 -978 225 C-990.51237717 254.38050159 -990.51237717 254.38050159 -1002.88717651 283.81781006 C-1004.7221793 288.21979858 -1006.56231453 292.61964191 -1008.40234375 297.01953125 C-1008.96862236 298.37371155 -1008.96862236 298.37371155 -1009.54634094 299.75524902 C-1013.82094333 309.97130425 -1018.12723477 320.17395054 -1022.4375 330.375 C-1022.83096619 331.30621674 -1023.22443237 332.23743347 -1023.62982178 333.1968689 C-1025.62244102 337.91234056 -1027.61555907 342.6276012 -1029.60888672 347.34277344 C-1031.9920383 352.9804958 -1034.37327542 358.6190253 -1036.75390625 364.2578125 C-1037.34141663 365.64939575 -1037.34141663 365.64939575 -1037.9407959 367.0690918 C-1039.12722952 369.87938092 -1040.31362283 372.68968705 -1041.5 375.5 C-1045.86092361 385.83023931 -1050.22186881 396.16046706 -1054.58802795 406.48849487 C-1056.57997755 411.20046934 -1058.57133025 415.91269594 -1060.5625 420.625 C-1060.9529953 421.54903625 -1061.3434906 422.47307251 -1061.74581909 423.42510986 C-1067.3281298 436.63741127 -1072.87514057 449.86411668 -1078.40280151 463.09936523 C-1089.15319677 488.82947626 -1089.15319677 488.82947626 -1094 500.125 C-1094.39131104 501.04909668 -1094.78262207 501.97319336 -1095.18579102 502.92529297 C-1095.53697998 503.73627441 -1095.88816895 504.54725586 -1096.25 505.3828125 C-1096.54390625 506.06746582 -1096.8378125 506.75211914 -1097.140625 507.45751953 C-1098 509 -1098 509 -1100 510 C-1100.01710973 463.10835349 -1100.03303146 416.21670674 -1100.04234314 369.32505798 C-1100.0424812 368.63160517 -1100.04261925 367.93815236 -1100.04276149 367.22368582 C-1100.04575405 352.15492003 -1100.04852428 337.08615422 -1100.05106533 322.01738835 C-1100.05231272 314.62821006 -1100.05360927 307.23903179 -1100.05493164 299.84985352 C-1100.0550624 299.11452167 -1100.05519316 298.37918982 -1100.05532788 297.62157519 C-1100.05959307 273.76567347 -1100.06710724 249.9097741 -1100.07629722 226.0538738 C-1100.08572005 201.54916723 -1100.09188317 177.04446196 -1100.09391499 152.5397536 C-1100.09420317 149.08264393 -1100.0945288 145.62553427 -1100.09487724 142.16842461 C-1100.09494467 141.48798199 -1100.09501209 140.80753938 -1100.09508156 140.10647729 C-1100.0962656 129.13092261 -1100.1009099 118.15537197 -1100.10683203 107.17981893 C-1100.11270523 96.15920021 -1100.11489026 85.13858457 -1100.11350138 74.1179641 C-1100.11285766 68.14127413 -1100.11387925 62.16459605 -1100.11920547 56.18790817 C-1100.12403769 50.72601792 -1100.12433983 45.26414765 -1100.12089889 39.80225652 C-1100.12047302 37.81705629 -1100.12177025 35.83185487 -1100.12488318 33.84665705 C-1100.1288442 31.16667764 -1100.12676525 28.48677221 -1100.12304783 25.80679417 C-1100.12567484 25.02008322 -1100.12830186 24.23337228 -1100.13100848 23.42282161 C-1100.1141458 18.1141458 -1100.1141458 18.1141458 -1099 17 C-1096.72571537 16.86605399 -1094.44723183 16.80355338 -1092.1693027 16.76679701 C-1091.07788156 16.74717198 -1091.07788156 16.74717198 -1089.9644115 16.72715049 C-1087.49031084 16.68389097 -1085.01615485 16.64773233 -1082.5419426 16.61145687 C-1080.75686701 16.58171859 -1078.97179856 16.55154894 -1077.18673694 16.52098355 C-1072.23484674 16.43746654 -1067.28287538 16.36015303 -1062.33087074 16.28376729 C-1056.96040425 16.19985767 -1051.5900319 16.11028309 -1046.21964574 16.02140576 C-1036.7907249 15.86615812 -1027.36175019 15.7146023 -1017.93273163 15.56541252 C-1003.90955526 15.3435203 -989.88647357 15.11603597 -975.86340563 14.88740653 C-952.26673632 14.50286586 -928.6699937 14.12301641 -905.07320404 13.74593925 C-881.66794468 13.3719181 -858.26271406 12.99618059 -834.85752106 12.61802864 C-833.38821788 12.59429192 -831.91891469 12.5705554 -830.4496115 12.54681908 C-824.54476588 12.45142476 -818.63992043 12.35601913 -812.73507523 12.26059872 C-796.22375491 11.99378641 -779.7124292 11.72730827 -763.2010994 11.46108341 C-762.4490226 11.448957 -761.69694581 11.43683058 -760.92207881 11.4243367 C-736.94001057 11.03767535 -712.95791914 10.65247237 -688.975811 10.26829433 C-688.19753319 10.2558267 -687.41925537 10.24335906 -686.61739338 10.23051361 C-673.97878635 10.02805451 -661.34017799 9.82567841 -648.70156954 9.62330766 C-598.68672078 8.82245919 -548.67194179 8.01739653 -498.65722656 7.20825195 C-495.50309781 7.15722516 -492.34896905 7.10619882 -489.19484028 7.05517256 C-488.41497816 7.04255623 -487.63511603 7.0299399 -486.83162172 7.01694126 C-478.1936499 6.87720018 -469.55567785 6.73747284 -460.91770554 6.59776211 C-460.14297278 6.58523128 -459.36824003 6.57270045 -458.57003052 6.5597899 C-417.37293106 5.8934672 -376.17577891 5.23042154 -334.9786065 4.56862551 C-329.06515187 4.47363104 -323.15169737 4.37862814 -317.23824288 4.28362521 C-315.03293255 4.24819672 -312.82762218 4.21277145 -310.6223118 4.17734633 C-294.53588218 3.91892805 -278.44946039 3.66003556 -262.36305904 3.399863 C-261.64074758 3.38818083 -260.91843612 3.37649865 -260.17423643 3.36446247 C-256.53834074 3.30565496 -252.90244519 3.24683889 -249.26654969 3.18801938 C-222.86610953 2.76093018 -196.46563298 2.33621711 -170.06508884 1.91560035 C-156.12614236 1.69345435 -142.18723026 1.46937804 -128.24836187 1.24238414 C-118.89971405 1.09034782 -109.55102542 0.94101332 -100.20230131 0.79374348 C-94.89965305 0.71014079 -89.59702796 0.62550516 -84.2944499 0.53755324 C-56.19408392 0.0724569 -28.10415163 -0.08352637 0 0 Z " fill="#7CF90F" transform="translate(1591,558)"/>
</svg>
